<svg width="105" height="40" viewBox="0 0 105 40" fill="none" xmlns="http://www.w3.org/2000/svg">
<path d="M0 19.0587H6.79305C6.85866 20.4046 7.35812 21.4131 8.29156 22.0845C9.29049 22.7575 10.622 23.0931 12.2875 23.0931C13.4863 23.0931 14.518 22.8583 15.3843 22.3871C16.1834 21.9174 16.5831 21.2777 16.5831 20.4707C16.5831 19.2603 15.1845 18.3526 12.3874 17.7474C11.1886 17.5457 10.2895 17.344 9.69017 17.1423C6.15941 16.2692 3.79626 15.2259 2.59744 14.0156C1.26443 12.8052 0.599468 11.1915 0.599468 9.1742C0.599468 6.61958 1.56411 4.50146 3.49647 2.81984C5.49444 1.2738 8.09177 0.5 11.2885 0.5C14.7505 0.5 17.5149 1.2738 19.58 2.81984C21.5108 4.50135 22.5426 6.68727 22.6768 9.37592H18.3812C17.1153 9.37592 16.1491 8.80539 15.4842 7.66123C15.2173 7.39327 14.9504 7.12376 14.685 6.85436C13.8859 6.24922 12.787 5.94665 11.3885 5.94665C10.0555 5.94665 9.05652 6.14836 8.39156 6.55179C7.7922 6.95522 7.49252 7.56037 7.49252 8.36734C7.49252 9.44371 9.22356 10.3514 12.6872 11.0906C13.0868 11.2261 13.4365 11.3269 13.736 11.3932C14.0359 11.461 14.3183 11.494 14.5853 11.494C17.9817 12.3687 20.345 13.3773 21.678 14.5199C22.9423 15.7303 23.5761 17.344 23.5761 19.3613C23.5761 22.3209 22.51 24.6061 20.3794 26.2199C18.3814 27.6997 15.3845 28.4389 11.3886 28.4389C7.59242 28.4389 4.76102 27.6667 2.89723 26.1191C0.964643 24.573 0 22.3209 0 19.3613V19.0587Z" fill="white"/>
<path d="M43.6674 19.6638H48.6622C47.9286 22.488 46.5301 24.6407 44.4665 26.1191C42.4015 27.6667 39.8041 28.4389 36.6745 28.4389C32.8784 28.4389 29.9143 27.1954 27.7836 24.7069C25.6515 22.2862 24.5869 18.8238 24.5869 14.3182C24.5869 10.0157 25.6187 6.65265 27.6837 4.23195C29.8143 1.74502 32.7785 0.5 36.5746 0.5C40.5706 0.5 43.6674 1.7104 45.8651 4.1311C47.9957 6.61958 49.0618 10.0819 49.0618 14.5199C49.0618 14.7894 49.0618 15.0242 49.0618 15.2259C49.0618 15.4276 49.0618 15.5631 49.0618 15.6293C49.0618 15.9665 49.0275 16.2014 48.9619 16.3353H31.6796C31.7453 18.4204 32.2447 19.9664 33.1782 20.975C34.0429 22.0514 35.3416 22.5888 37.0742 22.5888C38.2059 22.5888 39.1721 22.354 39.9712 21.8828C40.171 21.8166 40.3535 21.6985 40.5206 21.5299C40.6861 21.3628 40.8702 21.1768 41.07 20.975C41.1356 20.7733 41.3853 20.5053 41.8194 20.1681C42.2515 19.8325 42.8682 19.6638 43.6674 19.6638ZM31.6796 11.7966H41.8692C41.735 9.98106 41.2698 8.63674 40.4706 7.76208C39.6043 6.82119 38.3727 6.34997 36.7743 6.34997C35.3087 6.34997 34.1098 6.82119 33.1779 7.76208C32.2447 8.70442 31.7453 10.0487 31.6796 11.7966Z" fill="white"/>
<path d="M50.6724 27.9346V14.9234C50.6724 12.301 51.0547 10.0994 51.8211 8.31682C52.5859 6.53612 53.635 5.10669 54.968 4.03021C56.2323 3.02163 57.7152 2.28245 59.4134 1.81123C61.1118 1.34156 62.8603 1.10522 64.658 1.10522C64.7906 1.10522 64.9576 1.10522 65.1577 1.10522C65.3572 1.10522 65.5228 1.10522 65.6574 1.10522V8.26645H63.3592C61.4268 8.26645 59.9958 8.73767 59.0638 9.67857C58.1304 10.621 57.6652 12.0993 57.6652 14.1165V27.9347H50.6724V27.9346Z" fill="white"/>
<path d="M68.1597 1.10522H71.756C72.6877 1.10522 73.487 1.44242 74.1536 2.1138C74.8186 2.78674 75.1525 3.5936 75.1525 4.53449V27.9346H68.1597V1.10522Z" fill="white"/>
<path d="M80.733 28.0893C82.9325 28.0893 84.7155 26.2891 84.7155 24.0684C84.7155 21.8476 82.9325 20.0474 80.733 20.0474C78.5335 20.0474 76.7505 21.8476 76.7505 24.0684C76.7505 26.2891 78.5335 28.0893 80.733 28.0893Z" fill="#F2994A"/>
<path d="M99.7599 4.13099C97.5625 1.71029 94.4656 0.5 90.4696 0.5C86.6735 0.5 83.7094 1.74502 81.5789 4.23195C79.5137 6.65265 78.4819 10.0158 78.4819 14.3182C78.4819 16.1139 78.6539 17.7409 78.9923 19.2053C79.63 18.9167 80.3348 18.7526 81.0789 18.7526C83.902 18.7526 86.1906 21.0632 86.1906 23.9136C86.1906 25.1929 85.727 26.3612 84.9635 27.2629C86.57 28.0469 88.4386 28.439 90.5694 28.439C93.6992 28.439 96.2965 27.6668 98.3617 26.1192C100.425 24.6409 101.823 22.4881 102.557 19.6639H97.5626C96.7634 19.6639 96.1468 19.8326 95.7144 20.1682C95.2803 20.5054 95.0305 20.7734 94.9649 20.9751C94.7655 21.1768 94.5812 21.3629 94.4156 21.53C94.2485 21.6986 94.066 21.8167 93.8662 21.8829C93.0671 22.3542 92.1009 22.5889 90.969 22.5889C89.2364 22.5889 87.9379 22.0515 87.0732 20.9751C86.1397 19.9665 85.6402 18.4205 85.5749 16.3354H102.857C102.923 16.2015 102.957 15.9666 102.957 15.6294C102.957 15.5632 102.957 15.4277 102.957 15.226C102.957 15.0243 102.957 14.7894 102.957 14.52C102.957 10.0819 101.891 6.61947 99.7599 4.13099ZM85.5748 11.7966C85.64 10.0489 86.1396 8.70453 87.0731 7.76208C88.0047 6.82119 89.2036 6.34997 90.6694 6.34997C92.2678 6.34997 93.4994 6.82119 94.3658 7.76208C95.1649 8.63674 95.6298 9.98106 95.7641 11.7966H85.5748Z" fill="white"/>
<path d="M82.1499 31.3649V35.1107C82.1499 36.6617 81.348 37.4322 79.754 37.4225C78.1694 37.3933 77.3774 36.5251 77.3774 34.8083C77.3774 33.0526 78.0536 32.1552 79.416 32.1063C80.0536 32.1063 80.5461 32.3696 80.8747 32.9062V30.7114H81.5123C81.8602 30.7115 82.1499 31.014 82.1499 31.3649ZM78.701 34.7497C78.6912 35.7935 79.039 36.3204 79.7733 36.3204C80.5076 36.3204 80.8748 35.7936 80.8748 34.7497C80.8457 33.7549 80.4884 33.2672 79.7927 33.2672C79.0972 33.2673 78.7396 33.755 78.701 34.7497Z" fill="white"/>
<path d="M85.1063 37.4617C83.5604 37.4128 82.7876 36.5058 82.7876 34.7498C82.7876 32.9941 83.5702 32.1161 85.1257 32.1064C86.7487 32.1064 87.512 33.1111 87.4154 35.1304H84.1111C84.1595 35.9204 84.4975 36.3204 85.1257 36.3204C85.4252 36.3204 85.7055 36.1936 85.9566 35.9497C86.0722 35.8229 86.2172 35.7644 86.3913 35.7644H87.3379C87.0576 36.8567 86.3622 37.4617 85.1063 37.4617ZM84.1303 34.2036H86.0528C85.9758 33.5208 85.657 33.1695 85.1062 33.1695C84.5555 33.1696 84.227 33.5208 84.1303 34.2036Z" fill="white"/>
<path d="M90.3431 36.4081C90.884 36.4081 91.1544 36.2521 91.1544 35.9204C91.1544 35.6571 90.7102 35.4425 89.8309 35.2864C88.7007 35.0816 88.1209 34.5744 88.1111 33.7648C88.1111 32.6527 88.9806 32.1259 90.1497 32.1064C90.8068 32.1064 91.3285 32.2527 91.7149 32.5454C92.0915 32.8478 92.2947 33.2673 92.3233 33.8037H91.512C91.2124 33.794 91.0191 33.6867 90.942 33.4818C90.8547 33.2576 90.5941 33.1308 90.1688 33.1308C89.6665 33.1308 89.4152 33.2673 89.4152 33.5307C89.4152 33.7941 89.7438 33.9988 90.4105 34.1256C91.28 34.3012 91.85 34.5256 92.1303 34.789C92.3716 35.0426 92.4876 35.3547 92.4876 35.7059C92.4876 36.9739 91.5022 37.4422 90.1496 37.4422C89.4346 37.4422 88.8937 37.2861 88.5458 36.9837C88.1594 36.6912 87.9663 36.2423 87.9663 35.6473H89.28C89.3093 36.213 89.7149 36.4081 90.3431 36.4081Z" fill="white"/>
<path d="M93.8116 30.7114C94.2369 30.7114 94.4397 30.9259 94.43 31.3454V31.7259H93.145V30.7114H93.8116ZM93.8116 32.1842C94.2271 32.1842 94.43 32.3892 94.43 32.8086V37.3445H93.145V32.1844H93.8116V32.1842Z" fill="white"/>
<path d="M95.1743 34.7692C95.1743 33.0523 95.9664 32.1938 97.5509 32.1646C99.1449 32.1549 99.9468 32.9157 99.9468 34.4667V37.5198C99.9468 38.8172 99.1354 39.4706 97.5025 39.5C96.3433 39.5 95.6091 38.9537 95.3095 37.8611H96.7296C96.8166 38.2318 97.116 38.4075 97.6475 38.4075C98.3236 38.4075 98.6714 38.0076 98.6714 37.2077C98.6714 37.2077 98.6714 37.2175 98.6714 36.6809C98.3429 37.1881 97.8503 37.442 97.2127 37.442C95.8505 37.442 95.1743 36.5444 95.1743 34.7692ZM98.6717 34.8081C98.6811 33.7645 98.3237 33.2474 97.5896 33.2474C96.8552 33.2474 96.498 33.7646 96.498 34.8081C96.5271 35.8031 96.8746 36.3006 97.5703 36.3006C98.2661 36.3006 98.6331 35.8031 98.6717 34.8081Z" fill="white"/>
<path d="M104.343 37.3444C103.918 37.3152 103.705 37.1102 103.705 36.7006V34.0473C103.676 33.511 103.386 33.2475 102.816 33.2475C102.246 33.2475 101.957 33.511 101.947 34.0473V37.3444H100.643V34.3106C100.643 32.8378 101.377 32.1062 102.836 32.1062C104.295 32.1062 105.01 32.8378 105 34.3106V37.3444H104.343Z" fill="white"/>
</svg>
