<svg xmlns="http://www.w3.org/2000/svg" width="16" height="13" viewBox="0 0 16 13" fill="none">
<path d="M8.00041 11.9999L13.5854 6.33492C14.1715 5.7488 14.5008 4.95383 14.5008 4.12492C14.5008 3.29601 14.1715 2.50105 13.5854 1.91492C12.9993 1.3288 12.2043 0.999512 11.3754 0.999512C10.5465 0.999512 9.75154 1.3288 9.16541 1.91492L8.00041 2.99992L6.83541 1.91492C6.24928 1.3288 5.45432 0.999512 4.62541 0.999512C3.7965 0.999512 3.00154 1.3288 2.41541 1.91492C1.82928 2.50105 1.5 3.29601 1.5 4.12492C1.5 4.95383 1.82928 5.7488 2.41541 6.33492L8.00041 11.9999Z" stroke="white" stroke-width="1.5" stroke-linecap="round" stroke-linejoin="round"/>
</svg>